<?xml version="1.0" encoding="UTF-8"?>
<svg width="15px" height="20px" viewBox="0 0 15 20" version="1.1" xmlns="http://www.w3.org/2000/svg" xmlns:xlink="http://www.w3.org/1999/xlink">
    <!-- Generator: Sketch 51 (57462) - http://www.bohemiancoding.com/sketch -->
    <title>Icons/ic_originalcreditor</title>
    <desc>Created with Sketch.</desc>
    <defs></defs>
    <g id="Icons/ic_originalcreditor" stroke="none" stroke-width="1" fill="none" fill-rule="evenodd">
        <g stroke="#015C9C">
            <path d="M0,9.6 L7.2,4 L14.4,9.6 L14.4,18.4 C14.4,19.2836556 13.6836556,20 12.8,20 L1.6,20 C0.7163444,20 0,19.2836556 0,18.4 L0,9.6 Z" id="Shape" stroke-width="2" stroke-linecap="round" stroke-linejoin="round"></path>
            <circle id="Oval-2" stroke-width="2" fill="#FFFFFF" cx="7.2" cy="5.6" r="5.6"></circle>
            <path d="M7.27997566,8.71865162 L7.27997566,9.22058819 C7.27997566,9.33869091 7.16925436,9.41250511 7.04377022,9.41250511 C6.91090465,9.41250511 6.80756477,9.33869091 6.80756477,9.22058819 L6.80756477,8.71865162 C5.79631023,8.68174452 5.1984152,8.13551944 5.02864254,7.36785175 C5.02126112,7.33832607 5.02126112,7.30880039 5.02126112,7.27927471 C5.02126112,7.10212063 5.14674526,6.99878075 5.30175508,6.96925507 C5.33128076,6.96187365 5.36080644,6.96187365 5.39033212,6.96187365 C5.54534195,6.96187365 5.67082609,7.04306927 5.70773319,7.20546051 C5.84059875,7.76644843 6.12109271,8.06908666 6.80756477,8.13551944 L6.80756477,5.99490762 C5.74464029,5.78084644 5.14674526,5.33796124 5.14674526,4.43004657 C5.14674526,3.4483177 5.91441295,2.93899972 6.80756477,2.88732978 L6.80756477,2.5256402 C6.80756477,2.40753748 6.90352323,2.33372328 7.04377022,2.33372328 C7.17663578,2.33372328 7.27997566,2.40753748 7.27997566,2.5256402 L7.27997566,2.88732978 C8.09931328,2.94638114 8.68244547,3.41879202 8.86698097,4.06835699 C8.87436239,4.10526409 8.88174381,4.14217119 8.88174381,4.17907829 C8.88174381,4.32670669 8.77840393,4.41528373 8.63815695,4.45219083 C8.59386843,4.45957225 8.55696133,4.46695367 8.51267281,4.46695367 C8.37980725,4.46695367 8.26170452,4.40790231 8.22479742,4.26027391 C8.1066947,3.81738871 7.8114379,3.51475048 7.27997566,3.46308054 L7.27997566,5.41915686 C8.3281373,5.64798088 9.06627931,5.96538194 9.06627931,7.07997637 C9.06627931,8.16504512 8.22479742,8.68912594 7.27997566,8.71865162 Z M7.27997566,6.06872182 L7.27997566,8.13551944 C8.01073624,8.0838495 8.40195151,7.72215991 8.40195151,7.08735779 C8.40195151,6.3565972 7.9221592,6.22373164 7.27997566,6.06872182 Z M6.80756477,5.33796124 L6.80756477,3.46308054 C6.16538123,3.50736906 5.78892881,3.89120291 5.78892881,4.40052089 C5.78892881,4.88769461 6.01775283,5.18295142 6.80756477,5.33796124 Z" id="$" stroke-width="0.5" fill="#015C9C"></path>
            <rect id="Rectangle-2" fill="#015C9C" x="2.1" y="10.9" width="10.2" height="1"></rect>
        </g>
    </g>
</svg>